<svg width="47" height="47" viewBox="0 0 47 47" fill="none" xmlns="http://www.w3.org/2000/svg">
<path fill-rule="evenodd" clip-rule="evenodd" d="M19.0097 14.2816C19.7744 15.0464 19.7744 16.2863 19.0097 17.0511L14.5194 21.5413H37.2083C38.2898 21.5413 39.1666 22.4181 39.1666 23.4997C39.1666 24.5812 38.2898 25.458 37.2083 25.458H14.5194L19.0097 29.9483C19.7744 30.713 19.7744 31.953 19.0097 32.7178C18.2449 33.4825 17.0049 33.4825 16.2402 32.7178L8.40683 24.8844C7.64206 24.1197 7.64206 22.8797 8.40683 22.1149L16.2402 14.2816C17.0049 13.5168 18.2449 13.5168 19.0097 14.2816Z" fill="white"/>
<path fill-rule="evenodd" clip-rule="evenodd" d="M19.0097 14.2816C19.7744 15.0464 19.7744 16.2863 19.0097 17.0511L14.5194 21.5413H37.2083C38.2898 21.5413 39.1666 22.4181 39.1666 23.4997C39.1666 24.5812 38.2898 25.458 37.2083 25.458H14.5194L19.0097 29.9483C19.7744 30.713 19.7744 31.953 19.0097 32.7178C18.2449 33.4825 17.0049 33.4825 16.2402 32.7178L8.40683 24.8844C7.64206 24.1197 7.64206 22.8797 8.40683 22.1149L16.2402 14.2816C17.0049 13.5168 18.2449 13.5168 19.0097 14.2816Z" fill="white"/>
</svg>
